<svg width="65" height="64" viewBox="0 0 65 64" fill="none" xmlns="http://www.w3.org/2000/svg">
<path fill-rule="evenodd" clip-rule="evenodd" d="M21.0549 1C23.3192 0.337434 25.6523 0 28 0V1V7.57575L28 56.4242L28 58L28 64C24.323 64 20.682 63.1723 17.2849 61.5641C13.8877 59.956 10.8011 57.5989 8.20101 54.6274C5.60097 51.6559 3.53851 48.1283 2.13137 44.2459C0.724242 40.3635 0 36.2023 0 32C0 27.7977 0.724241 23.6365 2.13137 19.7541C3.5385 15.8717 5.60097 12.3441 8.20101 9.37258C10.8011 6.40111 13.8877 4.04401 17.2849 2.43585C18.4954 1.8628 19.7369 1.38885 21 1.01613V1H21.0549ZM21 8.92309C20.6034 9.08023 20.2104 9.25089 19.8216 9.43494C17.2287 10.6624 14.8728 12.4614 12.8883 14.7294C10.9038 16.9974 9.32957 19.69 8.25557 22.6532C7.18157 25.6165 6.62878 28.7926 6.62878 32C6.62878 35.2074 7.18157 38.3835 8.25557 41.3468C9.32958 44.31 10.9038 47.0026 12.8883 49.2706C14.8728 51.5386 17.2287 53.3376 19.8216 54.5651C20.2104 54.7491 20.6034 54.9198 21 55.0769V8.92309Z" fill="#2A5781"/>
<path fill-rule="evenodd" clip-rule="evenodd" d="M37 0C39.3477 0 41.6808 0.337434 43.9451 1H44V1.01613C45.2631 1.38885 46.5046 1.8628 47.7151 2.43585C51.1123 4.04401 54.1989 6.40111 56.799 9.37258C58.533 11.3543 60.0278 13.5833 61.2487 16H53.1471C52.8157 15.5632 52.4704 15.1394 52.1117 14.7294C50.1272 12.4614 47.7713 10.6624 45.1784 9.43494C44.7896 9.25089 44.3966 9.08023 44 8.92309V28H52H58.0827H64.7804C64.9263 29.324 65 30.6599 65 32C65 36.2023 64.2758 40.3635 62.8686 44.2459C61.4615 48.1283 59.399 51.6559 56.799 54.6274C54.1989 57.5989 51.1123 59.956 47.7151 61.5641C44.318 63.1723 40.677 64 37 64L37 58L37 56.4242V47H44V55.0769C44.3966 54.9198 44.7896 54.7491 45.1784 54.5651C47.7713 53.3376 50.1272 51.5386 52.1117 49.2706C54.0962 47.0026 55.6704 44.31 56.7444 41.3468C57.4819 39.3119 57.9737 37.1768 58.2094 35H49H44H37L37 7.57575V1V0Z" fill="#2A5781"/>
</svg>
